<?xml version="1.0" encoding="UTF-8" standalone="no"?>
<!-- Created with Inkscape (http://www.inkscape.org/) -->

<svg
   width="38mm"
   height="38mm"
   id="svg2169"
   sodipodi:version="0.32"
   inkscape:version="1.1.1 (3bf5ae0d25, 2021-09-20)"
   version="1.0"
   sodipodi:docname="hydroqc-logo.svg"
   inkscape:output_extension="org.inkscape.output.svg.inkscape"
   inkscape:export-filename="/tmp/hydroqc-logo-128.png"
   inkscape:export-xdpi="85.557899"
   inkscape:export-ydpi="85.557899"
   xmlns:inkscape="http://www.inkscape.org/namespaces/inkscape"
   xmlns:sodipodi="http://sodipodi.sourceforge.net/DTD/sodipodi-0.dtd"
   xmlns:xlink="http://www.w3.org/1999/xlink"
   xmlns="http://www.w3.org/2000/svg"
   xmlns:svg="http://www.w3.org/2000/svg"
   xmlns:rdf="http://www.w3.org/1999/02/22-rdf-syntax-ns#"
   xmlns:cc="http://creativecommons.org/ns#"
   xmlns:dc="http://purl.org/dc/elements/1.1/">
  <defs
     id="defs2171">
    <linearGradient
       gradientUnits="userSpaceOnUse"
       y2="131.85291"
       x2="110.14919"
       y1="77.070274"
       x1="55.549179"
       id="linearGradient9521"
       xlink:href="#linearGradient9515"
       inkscape:collect="always" />
    <linearGradient
       id="linearGradient9515"
       inkscape:collect="always">
      <stop
         id="stop9517"
         offset="0"
         style="stop-color:#387eb8;stop-opacity:1" />
      <stop
         id="stop9519"
         offset="1"
         style="stop-color:#366994;stop-opacity:1" />
    </linearGradient>
    <linearGradient
       gradientUnits="userSpaceOnUse"
       y2="168.1012"
       x2="147.77737"
       y1="111.92053"
       x1="89.136749"
       id="linearGradient11307"
       xlink:href="#linearGradient11301"
       inkscape:collect="always" />
    <linearGradient
       id="linearGradient11301"
       inkscape:collect="always">
      <stop
         id="stop11303"
         offset="0"
         style="stop-color:#ffe052;stop-opacity:1" />
      <stop
         id="stop11305"
         offset="1"
         style="stop-color:#ffc331;stop-opacity:1" />
    </linearGradient>
  </defs>
  <sodipodi:namedview
     id="base"
     pagecolor="#ffffff"
     bordercolor="#666666"
     borderopacity="1.0"
     inkscape:pageopacity="0.0"
     inkscape:pageshadow="2"
     inkscape:zoom="1.8101934"
     inkscape:cx="25.487597"
     inkscape:cy="-101.55887"
     inkscape:document-units="px"
     inkscape:current-layer="layer1"
     width="140px"
     height="184.25197px"
     inkscape:window-width="1329"
     inkscape:window-height="1389"
     inkscape:window-x="2107"
     inkscape:window-y="24"
     inkscape:pagecheckerboard="0"
     showgrid="false"
     inkscape:window-maximized="0"
     fit-margin-top="0"
     fit-margin-left="0"
     fit-margin-right="0"
     fit-margin-bottom="0"
     units="mm" />
  <metadata
     id="metadata2174">
    <rdf:RDF>
      <cc:Work
         rdf:about="">
        <dc:format>image/svg+xml</dc:format>
        <dc:type
           rdf:resource="http://purl.org/dc/dcmitype/StillImage" />
      </cc:Work>
    </rdf:RDF>
  </metadata>
  <g
     inkscape:label="Calque 1"
     inkscape:groupmode="layer"
     id="layer1"
     transform="translate(-479.70355,-271.057)">
    <g
       id="g8715"
       transform="translate(11.628929,37.555474)">
      <path
         d="m 514.86545,272.35582 c -2.29065,-0.26071 -12.58315,-1.44456 -13.97451,-1.25691 2.32494,-1.99112 9.72867,-8.38006 9.72867,-8.38006 l -38.10516,-4.22962 -0.51513,0.43872 23.38128,8.22957 -13.17381,11.32929 32.98335,3.64985 -1.8e-4,-0.007 -7e-5,8e-5 11.05603,0.92772 c 5.24598,0.58499 25.51992,3.12013 25.51992,3.12013 L 539.98757,275.1395 c -1.17156,-0.11192 -10.12214,-1.12462 -14.49121,-1.60849 l 3.9e-4,0.0113 z"
         id="path7578"
         style="fill:#ff9900;fill-opacity:1;fill-rule:nonzero;stroke:none;stroke-width:2.09297"
         sodipodi:nodetypes="cccccccccccccccc" />
      <path
         d="m 564.90584,338.26928 c 2.29065,0.26071 12.58315,1.44456 13.97451,1.25691 -2.32494,1.99112 -9.72867,8.38006 -9.72867,8.38006 l 38.10516,4.22962 0.51513,-0.43872 -23.38128,-8.22957 13.17381,-11.32929 -32.98335,-3.64985 1.8e-4,0.007 7e-5,-8e-5 -11.05603,-0.92772 c -5.24598,-0.58499 -25.51992,-3.12013 -25.51992,-3.12013 l 11.77827,11.03809 c 1.17156,0.11192 10.12214,1.12462 14.49121,1.60849 l -3.9e-4,-0.0113 z"
         id="path7578-6"
         style="fill:#ff9900;fill-opacity:1;fill-rule:nonzero;stroke:none;stroke-width:2.09297"
         sodipodi:nodetypes="cccccccccccccccc" />
      <g
         id="g1894"
         transform="translate(439.73757,182.92075)">
        <path
           style="color:#000000;display:inline;overflow:visible;visibility:visible;opacity:1;fill:url(#linearGradient9521);fill-opacity:1;fill-rule:nonzero;stroke:none;stroke-width:1;stroke-linecap:butt;stroke-linejoin:miter;stroke-miterlimit:4;stroke-dasharray:none;stroke-dashoffset:0;stroke-opacity:1;marker:none;marker-start:none;marker-mid:none;marker-end:none"
           d="M 99.75,67.46875 C 71.718268,67.468752 73.46875,79.625 73.46875,79.625 L 73.5,92.21875 h 26.75 V 96 H 62.875 c 0,0 -17.9375,-2.034276 -17.9375,26.25 -2e-6,28.28427 15.65625,27.28125 15.65625,27.28125 h 9.34375 v -13.125 c 0,0 -0.503652,-15.65625 15.40625,-15.65625 15.9099,0 26.53125,0 26.53125,0 0,0 14.90625,0.24096 14.90625,-14.40625 0,-14.647206 0,-24.21875 0,-24.21875 0,-2e-6 2.26318,-14.65625 -27.03125,-14.65625 z M 85,75.9375 c 2.661429,-2e-6 4.8125,2.151071 4.8125,4.8125 2e-6,2.661429 -2.151071,4.8125 -4.8125,4.8125 -2.661429,2e-6 -4.8125,-2.151071 -4.8125,-4.8125 -2e-6,-2.661429 2.151071,-4.8125 4.8125,-4.8125 z"
           id="path8615" />
        <path
           id="path8620"
           d="m 100.5461,177.31485 c 28.03174,0 26.28125,-12.15625 26.28125,-12.15625 l -0.0312,-12.59375 h -26.75 v -3.78125 h 37.375 c 0,0 17.9375,2.03427 17.9375,-26.25001 10e-6,-28.284267 -15.65625,-27.281247 -15.65625,-27.281247 h -9.34375 v 13.124997 c 0,0 0.50366,15.65625 -15.40625,15.65625 -15.909902,0 -26.531252,0 -26.531252,0 0,0 -14.90625,-0.24096 -14.90625,14.40626 0,14.6472 0,24.21875 0,24.21875 0,0 -2.26318,14.65625 27.031252,14.65625 z m 14.75,-8.46875 c -2.66143,0 -4.8125,-2.15107 -4.8125,-4.8125 0,-2.66143 2.15107,-4.8125 4.8125,-4.8125 2.66143,0 4.8125,2.15107 4.8125,4.8125 1e-5,2.66143 -2.15107,4.8125 -4.8125,4.8125 z"
           style="color:#000000;display:inline;overflow:visible;visibility:visible;opacity:1;fill:url(#linearGradient11307);fill-opacity:1;fill-rule:nonzero;stroke:none;stroke-width:1;stroke-linecap:butt;stroke-linejoin:miter;stroke-miterlimit:4;stroke-dasharray:none;stroke-dashoffset:0;stroke-opacity:1;marker:none;marker-start:none;marker-mid:none;marker-end:none" />
      </g>
      <path
         fill="#003da5"
         d="m 550.31467,319.23421 v -4.25567 h -3.88134 c 0,-2.17733 1.08004,-4.28867 2.22757,-4.94848 0.67501,-0.56081 2.19382,-0.8247 3.5101,-0.16493 1.72131,0.95669 1.82255,3.72784 0.94502,4.98145 8.20149,-1.48453 7.39147,-9.23712 4.59013,-12.04125 -2.26132,-2.27631 -4.72513,-2.60618 -6.61519,-1.91342 -4.32012,1.51755 -7.22272,6.56496 -7.35773,14.08663 h -2.26129 c 0,-6.82887 1.21503,-9.00621 4.38762,-17.61651 1.62007,-4.05775 0.64128,-9.0722 -2.19382,-13.69074 -1.04628,-1.6495 -2.32881,-3.13403 -3.78012,-4.75054 -1.45126,1.61651 -2.73381,3.10104 -3.7801,4.75054 -2.83509,4.61854 -3.81385,9.63299 -2.19382,13.69074 3.17261,8.6103 4.38764,10.78764 4.38764,17.61651 h -2.26131 c -0.13499,-7.52167 -3.03759,-12.56908 -7.35772,-14.08663 -1.89007,-0.69276 -4.35387,-0.36289 -6.61521,1.91342 -2.8013,2.80413 -3.61134,10.55672 4.59015,12.04125 -0.87752,-1.25361 -0.77628,-4.02476 0.94503,-4.98145 1.31628,-0.65977 2.83505,-0.39588 3.51008,0.16493 1.14755,0.65981 2.22757,2.77115 2.22757,4.94848 h -3.88136 v 4.25567 h 8.06649 c -0.10133,2.21034 -1.31627,3.92579 -3.57761,4.88247 0.27001,0.92372 1.65381,2.80414 3.54386,2.67218 0.37124,1.9794 0.70879,3.10104 2.39631,4.91549 1.68757,-1.81445 2.02507,-2.93609 2.39635,-4.91549 1.89006,0.13196 3.27384,-1.74846 3.54384,-2.67218 -2.26131,-0.95668 -3.47633,-2.67213 -3.57759,-4.88247 z"
         id="path6334"
         sodipodi:nodetypes="ccccccccccccccccccccccccccccccccc"
         style="fill:#ff9900;fill-opacity:1;stroke-width:0.0333681" />
    </g>
  </g>
</svg>
